<?xml version="1.0" standalone="no"?>
<!DOCTYPE svg PUBLIC "-//W3C//DTD SVG 20010904//EN"
 "http://www.w3.org/TR/2001/REC-SVG-20010904/DTD/svg10.dtd">
<svg version="1.0" xmlns="http://www.w3.org/2000/svg"
 width="512.000000pt" height="512.000000pt" viewBox="0 0 512.000000 512.000000"
 preserveAspectRatio="xMidYMid meet">
<metadata>
Created by potrace 1.11, written by Peter Selinger 2001-2013
</metadata>
<g transform="translate(0.000000,512.000000) scale(0.100000,-0.100000)"
fill="#000000" stroke="none">
<path d="M2379 5096 c-2 -2 -39 -7 -82 -10 -43 -3 -82 -8 -85 -10 -4 -2 -34
-7 -66 -10 -32 -4 -62 -8 -65 -10 -4 -3 -26 -7 -50 -11 -24 -3 -54 -10 -68
-16 -13 -5 -37 -11 -53 -14 -95 -17 -340 -109 -492 -186 -159 -79 -342 -196
-460 -293 -82 -67 -271 -252 -340 -333 -68 -79 -198 -258 -243 -334 -50 -87
-110 -202 -145 -281 -35 -77 -116 -297 -125 -338 -2 -8 -10 -43 -19 -77 -19
-71 -35 -150 -42 -208 -3 -22 -7 -45 -9 -52 -12 -37 -20 -182 -20 -363 0 -274
8 -342 70 -620 34 -156 117 -374 208 -550 250 -486 651 -878 1143 -1120 78
-39 148 -70 156 -70 8 0 18 -4 24 -9 31 -29 387 -130 514 -146 25 -3 52 -7 60
-9 71 -20 504 -29 642 -14 829 93 1572 589 1965 1313 217 400 315 802 307
1265 -1 113 -5 223 -9 245 -24 165 -32 207 -42 250 -8 35 -7 30 -17 75 -20 93
-90 295 -141 412 -277 634 -807 1132 -1459 1373 -112 41 -302 93 -401 110 -16
3 -41 7 -55 10 -14 3 -47 7 -75 11 -27 3 -59 8 -70 11 -24 5 -451 14 -456 9z"/>
</g>
</svg>
